<svg width="4465" height="1909" viewBox="0 0 4465 1909" fill="none" xmlns="http://www.w3.org/2000/svg">
<path d="M9.4211 1023.38C-3.42452 1041.04 3.88333 1080.25 7.67465 1099.64C19.786 1161.59 37.4209 1223.88 59.4861 1283.02C106.944 1410.2 190.676 1544.97 321.745 1598.83C397.484 1629.96 489.222 1638.96 569.741 1646.28C671.139 1655.5 781.131 1660.27 882.647 1649.77C955.327 1642.25 1029.12 1602.67 1077.09 1547.02C1128.24 1487.68 1132.34 1405.87 1142.87 1331.34C1165.45 1171.44 1130.25 1002.48 1033.13 873.475C993.023 820.194 953.34 748.113 897.783 709.017C855.311 679.129 814.683 648.471 773.494 617.037C644.045 518.248 491.716 449.454 352.89 365.548C311.668 340.634 229.338 304.104 270.225 249.118C301.494 207.066 329.254 194.587 380.251 184.499C625.832 135.923 866.84 126.885 1113.76 181.589C1223.88 205.984 1316.9 261.173 1391.74 346.046C1434.42 394.449 1465.63 452.21 1500.02 506.429C1535.68 562.649 1577.63 615.089 1611.5 672.342C1651.73 740.349 1695.11 819.67 1684.85 901.709C1673.98 988.66 1679.65 1080.16 1680.78 1167.75C1681.89 1254.34 1683.7 1344.66 1693.87 1430.59C1701.49 1494.91 1740.61 1542.5 1780.32 1592.14C1831.63 1656.27 1891.19 1727.12 1964.57 1766.78C2041.47 1808.35 2128.44 1819.2 2214.61 1819.76C2316.79 1820.42 2422.05 1826.53 2523.73 1816.27C2588.75 1809.71 2655.73 1782.13 2702.45 1735.93C2739.68 1699.11 2752.26 1656.51 2762.12 1606.11C2782.92 1499.83 2760.15 1375.19 2723.41 1274.87C2698.76 1207.56 2667.19 1143.89 2631.72 1081.59C2604.1 1033.09 2571.72 977.306 2513.83 962.835C2473.98 952.873 2431.36 955.267 2390.71 955.267C2314.67 955.267 2241.95 960.872 2166.87 973.896C2009.98 1001.11 1847.61 997.809 1691.84 1035.02C1520.64 1075.92 1364.32 1163.02 1185.95 1170.08C1098.39 1173.55 1013.93 1197.05 926.308 1200.35C854.484 1203.06 763.141 1214.92 692.284 1196.28C676.572 1192.14 662.745 1185.81 649.787 1175.9C613.515 1148.16 577.198 1121.77 539.76 1095.57C464.592 1042.95 393.54 979.636 348.815 898.507C316.203 839.351 289.497 709.083 356.092 660.117C380.99 641.809 419.361 643.695 448.654 640.906C481.551 637.772 513.006 635.666 546.164 635.666C679.345 635.666 811.631 646.145 944.937 646.145C1035.08 646.145 1124.27 656.624 1214.18 656.624C1302.37 656.624 1390.59 657.352 1478.77 656.624C1554.66 655.996 1612.74 636.442 1675.25 593.169C1725.54 558.348 1769.08 517.869 1824.57 490.129C1888.56 458.131 1960.28 433.667 2029.48 415.613C2113.83 393.609 2209.67 404.002 2295.82 405.426C2482.4 408.51 2663.34 453.63 2809.57 573.085C2868.18 620.964 2922.58 672.52 2960.34 738.707C3003.57 814.464 3025.8 898.62 3050.87 981.464C3073.02 1054.67 3079.31 1131.12 3079.68 1207.34C3079.89 1248.78 3089.69 1305.97 3076.19 1346.47C3050.42 1423.8 2999.79 1489.07 2980.14 1568.27C2961.69 1642.59 2946.18 1710.11 2955.1 1787.74C2962.5 1852.07 2995.51 1890.23 3058.73 1900.39C3137.58 1913.06 3223.1 1903.59 3302.65 1903.59C3382.66 1903.59 3465.52 1909.97 3544.82 1897.77C3674.15 1877.87 3829.74 1846.58 3940.68 1774.35C4074.22 1687.42 4141.67 1560.77 4152.59 1403.52C4165.63 1215.74 4121.7 1029.56 4021.02 870.855C3993.59 827.61 3963.98 785.867 3937.19 742.2C3923.5 719.877 3908.53 699.151 3887.71 682.82C3832.76 639.726 3765.84 613.728 3703.17 584.437C3581.73 527.677 3442.32 604.946 3336.99 660.117C3222.18 720.256 3113.01 785.045 3011.57 866.198C2975.9 894.733 2940.75 924.005 2901.55 947.699C2855.89 975.291 2806.48 995.892 2760.67 1023.38C2683.98 1069.39 2616.19 1126.53 2541.78 1175.9C2469.97 1223.54 2393.86 1265.04 2315.9 1301.65C2123.11 1392.17 1922.87 1447.2 1711.63 1471.05C1641.05 1479.02 1568.01 1473.96 1497.11 1473.96C1445.2 1473.96 1397.06 1476.43 1367 1425.64C1314.2 1336.47 1305.68 1221.84 1293.65 1121.18C1277.83 988.866 1261.09 856.335 1261.63 722.989C1262.22 576.421 1279.12 415.788 1408.33 322.469C1453.81 289.624 1496.4 262.669 1551.25 247.954C1613.02 231.381 1677.04 221.424 1739.57 208.368C1794.19 196.964 1852.45 197.108 1907.81 190.321C1999.13 179.127 2089.08 172.069 2181.13 167.035C2381.38 156.084 2603.59 145.041 2788.32 235.438C2831.97 256.799 2878.53 310.851 2905.62 349.83C2950.05 413.76 2988.6 487.986 3022.05 558.24C3061.23 640.515 3097.74 725.184 3115.19 814.969C3137.65 930.472 3148.22 1052.1 3193.2 1161.93C3252.38 1306.44 3362.18 1457.46 3523.28 1489.68C3594.93 1504.01 3668.66 1500.16 3741.3 1500.16C3826.45 1500.16 3919.48 1509.42 4002.97 1487.35C4121.74 1455.97 4221.78 1379.81 4321.41 1311.54C4367.08 1280.25 4395.04 1231.22 4425.32 1185.8C4464.07 1127.67 4447.66 1040.58 4456.47 974.478C4473.84 844.232 4454.65 705.279 4399.42 585.601C4368.02 517.559 4314.89 454.341 4269.6 394.656C4215.02 322.732 4149.48 260.608 4083.89 199.053C3996.42 116.96 3882.98 43.0064 3765.46 15.0936C3665.14 -8.73198 3583.9 -2.48029 3498.83 59.337C3422.87 114.538 3348.72 173.765 3317.2 265.709C3298.95 318.944 3299.74 373.059 3299.74 428.421C3299.74 502.992 3353.17 570.214 3391.72 630.427C3512.75 819.474 3678.86 987.889 3850.45 1131.66C3926.04 1194.99 4010.69 1244.87 4085.93 1308.92C4152.02 1365.19 4205.84 1425.21 4261.45 1491.43C4306.2 1544.72 4354.28 1595.71 4402.04 1646.28C4410.21 1654.94 4420.31 1664.11 4431.44 1667.82" stroke="#00ECBE" stroke-width="3" stroke-linecap="round"/>
</svg>
